<svg xmlns="http://www.w3.org/2000/svg">

    <svg id="x" viewBox="0 0 24 24" width="24" fill="currentColor">
        <path d="M19.6004 17.2L14.3004 11.9L19.6004 6.60005L17.8004 4.80005L12.5004 10.2L7.20039 4.90005L5.40039 6.60005L10.7004 11.9L5.40039 17.2L7.20039 19L12.5004 13.7L17.8004 19L19.6004 17.2Z"/>
    </svg>

    <svg id="x-alt" fill="currentColor">
        <path d="M17.25,7.8L16.2,6.75l-4.2,4.2l-4.2-4.2L6.75,7.8l4.2,4.2l-4.2,4.2l1.05,1.05l4.2-4.2l4.2,4.2l1.05-1.05 l-4.2-4.2L17.25,7.8z" />
    </svg>

    <svg id="groups" fill="currentColor">
        <path fill-rule="evenodd" clip-rule="evenodd" d="M6.37092 18.6728C6.22765 18.5403 6.10431 18.3762 6.00888 18.1973C5.88011 17.9559 5.80217 17.6876 5.79472 17.4335C5.77992 16.9291 5.75694 15.9341 5.81691 15.4918C5.84367 15.2944 5.89021 15.111 5.95079 14.9421C6.02312 14.7405 6.11792 14.5597 6.22835 14.3977C6.44698 14.077 6.72688 13.8296 7.01486 13.6386C7.04895 13.616 7.08314 13.5941 7.11736 13.5731C7.57933 13.2888 8.09602 13.1117 8.52831 12.9865C8.90306 12.878 9.34961 12.7693 9.85702 12.6823C10.485 12.5746 11.2062 12.5001 12 12.5001C12.7937 12.5001 13.5149 12.5746 14.1429 12.6823C14.6503 12.7693 15.0969 12.878 15.4716 12.9865C15.9039 13.1117 16.4206 13.2888 16.8826 13.5731C16.9168 13.5941 16.951 13.616 16.9851 13.6386C17.2731 13.8296 17.553 14.077 17.7716 14.3977C17.882 14.5597 17.9768 14.7405 18.0492 14.9421C18.1097 15.111 18.1563 15.2944 18.183 15.4918C18.243 15.9341 18.22 16.9291 18.2052 17.4335C18.1978 17.6876 18.1198 17.9559 17.9911 18.1973C17.8956 18.3762 17.7723 18.5403 17.629 18.6729C17.4138 18.872 17.1536 19 16.8756 19H7.12434C6.84632 19 6.58614 18.872 6.37092 18.6728ZM19.9606 15.4041C20.0099 15.9938 20.0031 16.2628 19.992 17C19.9887 17.22 19.985 17.3926 19.9822 17.4856C19.9692 17.9298 19.8643 18.6252 19.6869 19H22.6608C23.3769 19 23.9744 17.1535 23.9908 16.4244C24 16.0153 24.0117 16.2932 23.9736 15.9559C23.8921 15.2339 23.4788 14.7098 23.0245 14.3596C22.5875 14.0227 22.0691 13.8088 21.6087 13.6766C21.6029 13.675 21.5972 13.6733 21.5915 13.6717C21.5881 13.6707 21.5847 13.6698 21.5813 13.6688C21.5228 13.6524 21.4627 13.6362 21.401 13.6205C20.8883 13.49 20.2632 13.389 19.5555 13.389C19.5378 13.389 19.52 13.3891 19.5023 13.3892C19.4137 13.3898 19.3264 13.392 19.2405 13.3957C19.355 13.5637 19.4612 13.7454 19.5555 13.942C19.5647 13.9611 19.5738 13.9805 19.5828 13.9999C19.6332 14.1094 19.68 14.2234 19.7226 14.342C19.8237 14.6239 19.9007 14.9282 19.9447 15.253C19.9506 15.2963 19.9559 15.347 19.9606 15.4041ZM17.9339 11.4492C18.2894 11.7225 18.7156 11.9081 19.1802 11.9737C19.3028 11.991 19.4281 12 19.5555 12C20.1263 12 20.6553 11.8201 21.089 11.5141C21.7744 11.0305 22.2222 10.2319 22.2222 9.33C22.2222 7.85724 21.0283 6.67 19.5555 6.67C18.7591 6.67 18.0441 7.01722 17.5555 7.56905C17.1406 8.03762 16.8889 8.65371 16.8889 9.33C16.8889 9.57007 16.9206 9.80282 16.9801 10.0243C17.1343 10.5986 17.4753 11.0968 17.9339 11.4492ZM14.8977 9.61901C14.9641 9.52593 15.0262 9.42949 15.0835 9.33C15.3838 8.80927 15.5555 8.20499 15.5555 7.56C15.5555 7.36964 15.5406 7.18272 15.5117 7.00038C15.2434 5.30182 13.7733 4 12 4C10.2267 4 8.75657 5.30182 8.4882 7.00038C8.45939 7.18272 8.44443 7.36964 8.44443 7.56C8.44443 8.20499 8.61617 8.80927 8.91642 9.33C8.97378 9.42949 9.03584 9.52593 9.10229 9.61901C9.38894 10.0206 9.75728 10.3599 10.1831 10.6129C10.7148 10.9287 11.3362 11.11 12 11.11C12.6638 11.11 13.2851 10.9287 13.8168 10.6129C14.2427 10.3599 14.611 10.0206 14.8977 9.61901ZM7.01988 10.0243C7.07937 9.80282 7.1111 9.57007 7.1111 9.33C7.1111 8.65371 6.85934 8.03762 6.44443 7.56905C5.95581 7.01722 5.2409 6.67 4.44444 6.67C2.97168 6.67 1.77777 7.85724 1.77777 9.33C1.77777 10.2319 2.22555 11.0305 2.91093 11.5141C3.34469 11.8201 3.87362 12 4.44444 12C4.5718 12 4.6971 11.991 4.8197 11.9737C5.28435 11.9081 5.71054 11.7225 6.06606 11.4492C6.52463 11.0967 6.86561 10.5985 7.01988 10.0243ZM2.599 13.6205C2.53726 13.6362 2.47715 13.6524 2.41872 13.6688C2.41531 13.6698 2.41189 13.6707 2.40848 13.6717C2.40276 13.6733 2.39702 13.675 2.39128 13.6766C1.9309 13.8088 1.41245 14.0227 0.975466 14.3596C0.521192 14.7098 0.107939 15.2339 0.0263682 15.9559C-0.0117388 16.2932 2.95136e-05 17.0153 0.00922726 17.4244C0.0256195 18.1535 0.623061 19 1.33916 19H4.31303C4.13562 18.6252 4.03074 17.9298 4.01771 17.4856C4.01498 17.3926 4.01127 17.22 4.00795 17C3.99682 16.2628 3.99008 15.9938 4.03932 15.4041C4.04409 15.347 4.04938 15.2963 4.05525 15.253C4.09928 14.9282 4.17628 14.6239 4.27738 14.342C4.31992 14.2234 4.36671 14.1094 4.41718 13.9999C4.42615 13.9805 4.43524 13.9612 4.44444 13.942C4.53872 13.7454 4.64492 13.5636 4.7595 13.3957C4.67357 13.392 4.58626 13.3898 4.49762 13.3892C4.47995 13.3891 4.46224 13.389 4.44446 13.389C3.73676 13.389 3.11171 13.49 2.599 13.6205ZM12 14.5001C10.7893 14.5001 9.78078 14.706 9.08457 14.9076C8.70827 15.0166 8.39668 15.1342 8.16548 15.2764C7.94245 15.4137 7.86482 15.5296 7.83338 15.6173C7.81839 15.6591 7.80612 15.7064 7.79878 15.7605C7.79943 15.7557 7.7992 15.7596 7.7984 15.7735C7.79628 15.8102 7.79017 15.9159 7.78551 16.1142C7.77998 16.3491 7.77773 16.6382 7.77778 16.9391C7.77784 17.3256 7.78168 16.7121 7.78618 17H16.2138C16.2183 16.7121 16.2221 17.3256 16.2222 16.9391C16.2222 16.6383 16.22 16.3491 16.2144 16.1142C16.2098 15.9159 16.2037 15.8101 16.2016 15.7735C16.2007 15.7596 16.2005 15.7557 16.2012 15.7605C16.1938 15.7064 16.1816 15.6591 16.1666 15.6173C16.1351 15.5296 16.0575 15.4137 15.8345 15.2764C15.6033 15.1342 15.2917 15.0166 14.9154 14.9076C14.2192 14.706 13.2107 14.5001 12 14.5001ZM12 6C11.1441 6 10.4444 6.69763 10.4444 7.56C10.4444 8.41504 11.1368 9.11 12 9.11C12.8632 9.11 13.5555 8.41504 13.5555 7.56C13.5555 6.69763 12.8558 6 12 6Z"/>
    </svg>

    <svg id="filter" viewBox="0 0 24 24" width="24" fill="currentColor">
        <path d="M10,18.1h4v-2h-4V18.1z M3,6.1v2h18v-2H3z M6,13.1h12v-2H6V13.1z"/>
    </svg>

    <svg id="options" fill="currentColor">
        <path d="M12,7c1.104,0,2-0.896,2-2c0-1.105-0.895-2-2-2c-1.104,0-2,0.894-2,2 C10,6.105,10.895,7,12,7z M12,9c-1.104,0-2,0.894-2,2c0,1.104,0.895,2,2,2c1.104,0,2-0.896,2-2C13.999,9.895,13.104,9,12,9z M12,15 c-1.104,0-2,0.894-2,2c0,1.104,0.895,2,2,2c1.104,0,2-0.896,2-2C13.999,15.894,13.104,15,12,15z"/>
    </svg>

    <svg id="down" fill="currentColor">
        <path d="M3.8,6.7l5.7,5.7l5.7-5.7l1.6,1.6l-7.3,7.2L2.2,8.3L3.8,6.7z"/>
    </svg>

    <svg id="send" viewBox="-3 -2 28 28" fill="currentColor">
        <path d="M1.101,21.757L23.8,12.028L1.101,2.3l0.011,7.912l13.623,1.816L1.112,13.845 L1.101,21.757z"/>
    </svg>

    <svg id="new-chat" fill="currentColor">
        <path d="M9.53277 12.9911H11.5086V14.9671C11.5086 15.3999 11.7634 15.8175 12.1762 15.9488C12.8608 16.1661 13.4909 15.6613 13.4909 15.009V12.9911H15.4672C15.9005 12.9911 16.3181 12.7358 16.449 12.3226C16.6659 11.6381 16.1606 11.0089 15.5086 11.0089H13.4909V9.03332C13.4909 8.60007 13.2361 8.18252 12.8233 8.05119C12.1391 7.83391 11.5086 8.33872 11.5086 8.991V11.0089H9.49088C8.83941 11.0089 8.33411 11.6381 8.55097 12.3226C8.68144 12.7358 9.09947 12.9911 9.53277 12.9911Z"/>
        <path fill-rule="evenodd" d="M0.944298 5.52617L2.99998 8.84848V17.3333C2.99998 18.8061 4.19389 20 5.66665 20H19.3333C20.8061 20 22 18.8061 22 17.3333V6.66667C22 5.19391 20.8061 4 19.3333 4H1.79468C1.01126 4 0.532088 4.85997 0.944298 5.52617ZM4.99998 8.27977V17.3333C4.99998 17.7015 5.29845 18 5.66665 18H19.3333C19.7015 18 20 17.7015 20 17.3333V6.66667C20 6.29848 19.7015 6 19.3333 6H3.58937L4.99998 8.27977Z"/>
    </svg>

    <svg id="tail-in" height="13" width="8">
        <path opacity="0.13" d="M1.533,3.568L8,12.193V1H2.812 C1.042,1,0.474,2.156,1.533,3.568z"/>
        <path fill="currentColor" d="M1.533,2.568L8,11.193V0L2.812,0C1.042,0,0.474,1.156,1.533,2.568z"/>
    </svg>

    <svg id="tail-out" height="13" width="8">
        <path opacity="0.13" d="M5.188,1H0v11.193l6.467-8.625 C7.526,2.156,6.958,1,5.188,1z"/>
        <path fill="currentColor" d="M5.188,0H0v11.193l6.467-8.625C7.526,1.156,6.958,0,5.188,0z"/>
    </svg>

    <svg viewBox="0 0 12 20" height="20" width="12" id="chat-audio" fill="currentColor">
        <path d="M6,11.745c1.105,0,2-0.896,2-2V4.941c0-1.105-0.896-2-2-2s-2,0.896-2,2v4.803 C4,10.849,4.895,11.745,6,11.745z M9.495,9.744c0,1.927-1.568,3.495-3.495,3.495s-3.495-1.568-3.495-3.495H1.11 c0,2.458,1.828,4.477,4.192,4.819v2.495h1.395v-2.495c2.364-0.342,4.193-2.362,4.193-4.82H9.495V9.744z" />
    </svg>
    
    <svg viewBox="0 0 13 20" height="20" width="13" id="chat-document" fill="currentColor">
        <path d="M10.2,3H2.5C1.7,3,1,3.7,1,4.5v10.1C1,15.3,1.7,16,2.5,16h7.7c0.8,0,1.5-0.7,1.5-1.5v-10 C11.6,3.7,11,3,10.2,3z M7.6,12.7H3.5v-1.3h4.1V12.7z M9.3,10H3.5V8.7h5.8V10z M9.3,7.3H3.5V6h5.8V7.3z" />
    </svg>
    
    <svg viewBox="0 0 16 20" height="20" width="16" id="chat-image" fill="currentColor">
        <path d="M13.822,4.668H7.14l-1.068-1.09C5.922,3.425,5.624,3.3,5.409,3.3H3.531 c-0.214,0-0.51,0.128-0.656,0.285L1.276,5.296C1.13,5.453,1.01,5.756,1.01,5.971v1.06c0,0.001-0.001,0.002-0.001,0.003v6.983 c0,0.646,0.524,1.17,1.17,1.17h11.643c0.646,0,1.17-0.524,1.17-1.17v-8.18C14.992,5.191,14.468,4.668,13.822,4.668z M7.84,13.298 c-1.875,0-3.395-1.52-3.395-3.396c0-1.875,1.52-3.395,3.395-3.395s3.396,1.52,3.396,3.395C11.236,11.778,9.716,13.298,7.84,13.298z  M7.84,7.511c-1.321,0-2.392,1.071-2.392,2.392s1.071,2.392,2.392,2.392s2.392-1.071,2.392-2.392S9.161,7.511,7.84,7.511z" />
    </svg>
    
    <svg viewBox="0 0 16 20" height="20" width="16" id="chat-video" fill="currentColor">
        <path d="M15.243,5.868l-3.48,3.091v-2.27c0-0.657-0.532-1.189-1.189-1.189H1.945 c-0.657,0-1.189,0.532-1.189,1.189v7.138c0,0.657,0.532,1.189,1.189,1.189h8.629c0.657,0,1.189-0.532,1.189-1.189v-2.299l3.48,3.09 V5.868z" />
    </svg>
    
    <svg viewBox="0 0 20 20" height="20" width="20" id="chat-gif" fill="currentColor">
        <path d="M4.878,3.9h10.285c1.334,0,1.818,0.139,2.306,0.4c0.488,0.261,0.871,0.644,1.131,1.131 C18.861,5.919,19,6.403,19,7.737v4.351c0,1.334-0.139,1.818-0.4,2.306c-0.261,0.488-0.644,0.871-1.131,1.131 c-0.488,0.261-0.972,0.4-2.306,0.4H4.878c-1.334,0-1.818-0.139-2.306-0.4c-0.488-0.261-0.871-0.644-1.131-1.131 s-0.4-0.972-0.4-2.306V7.737c0-1.334,0.139-1.818,0.4-2.306S2.084,4.561,2.572,4.3S3.544,3.9,4.878,3.9z M11.071,9.836L11.071,9.836 c-0.001-0.783,0.002-1.567-0.003-2.35c-0.002-0.281-0.2-0.519-0.458-0.577c-0.283-0.063-0.568,0.064-0.683,0.328 C9.881,7.343,9.865,7.471,9.865,7.589c-0.004,1.492-0.003,2.984-0.002,4.476c0,0.06,0.002,0.121,0.008,0.181 c0.026,0.248,0.225,0.462,0.468,0.508c0.397,0.076,0.728-0.196,0.731-0.611C11.074,11.375,11.071,10.606,11.071,9.836z  M7.338,10.523c0,0.274-0.005,0.521,0.002,0.768c0.003,0.093-0.031,0.144-0.106,0.19c-0.279,0.172-0.583,0.254-0.905,0.292 C5.51,11.87,4.757,11.44,4.457,10.692c-0.147-0.367-0.178-0.748-0.125-1.14c0.131-0.97,1.022-1.647,1.984-1.513 c0.359,0.05,0.674,0.194,0.968,0.396c0.157,0.108,0.327,0.158,0.513,0.112c0.243-0.06,0.398-0.219,0.448-0.464 c0.055-0.273-0.055-0.484-0.278-0.637C7.176,6.901,6.29,6.787,5.384,6.982c-2.006,0.432-2.816,2.512-2.08,4.196 c0.481,1.101,1.379,1.613,2.546,1.693c0.793,0.054,1.523-0.148,2.2-0.56c0.265-0.161,0.438-0.385,0.447-0.698 c0.014-0.522,0.014-1.045,0.001-1.568c-0.007-0.297-0.235-0.549-0.51-0.557C7.442,9.474,6.895,9.477,6.348,9.487 c-0.21,0.004-0.394,0.181-0.446,0.385c-0.055,0.217,0.023,0.447,0.217,0.559c0.092,0.053,0.207,0.083,0.313,0.088 C6.728,10.53,7.024,10.523,7.338,10.523z M13.815,8.004h0.171c0.811,0,1.623,0.002,2.434-0.001c0.383-0.001,0.632-0.286,0.577-0.654 c-0.041-0.274-0.281-0.455-0.611-0.455c-1.025-0.001-2.049-0.001-3.074,0c-0.474,0-0.711,0.237-0.711,0.713c0,1.078,0,2.155,0,3.233 c0,0.415,0,0.83,0,1.246c0,0.243,0.096,0.436,0.306,0.56c0.41,0.241,0.887-0.046,0.896-0.545c0.009-0.504,0.002-1.008,0.002-1.511 v-0.177h0.169c0.7,0,1.4,0.001,2.1-0.001c0.259-0.001,0.463-0.153,0.535-0.388c0.071-0.235-0.001-0.488-0.213-0.611 c-0.118-0.068-0.27-0.103-0.407-0.105c-0.667-0.01-1.335-0.005-2.003-0.005h-0.172V8.004z" />
    </svg>
    
    <svg viewBox="0 0 16 16" height="16" width="16" id="chat-sticker" fill="currentColor">
        <path d="M9.179,14.637c0.061-0.14,0.106-0.29,0.135-0.45 c0.031-0.171,0.044-0.338,0.049-0.543c0.002-0.078,0.003-0.155,0.003-0.233c0-0.043,0-0.043,0.001-0.067c0-0.024,0-0.024,0-0.072 l0.002-0.216c0.01-0.364,0.032-1.205,0.08-1.473c0.052-0.287,0.136-0.538,0.255-0.771c0.122-0.237,0.281-0.453,0.472-0.642 c0.193-0.191,0.412-0.349,0.653-0.469c0.238-0.12,0.493-0.203,0.786-0.255c0.27-0.048,1.098-0.07,1.487-0.08l0.152,0.001 c0.027,0,0.027,0,0.047,0c0.045,0,0.088-0.001,0.325-0.004c0.221-0.006,0.384-0.018,0.554-0.048 c0.177-0.032,0.341-0.081,0.494-0.151c-0.201,0.923-0.671,1.77-1.359,2.429c-0.561,0.538-1.264,1.194-2.057,1.924 C10.667,14.061,9.951,14.444,9.179,14.637z M7.358,14.797c-0.203,0.005-0.406,0.01-0.474,0.012c-0.301,0.007-0.448,0.01-0.507,0.009 c-0.551-0.015-0.96-0.046-1.372-0.119c-0.481-0.086-0.912-0.226-1.314-0.428c-0.416-0.209-0.794-0.48-1.123-0.807 c-0.33-0.326-0.605-0.699-0.816-1.11c-0.205-0.397-0.347-0.824-0.434-1.303c-0.074-0.411-0.106-0.827-0.12-1.356 C1.193,9.5,1.19,9.297,1.189,9.078c-0.002-0.206-0.002-0.37-0.002-0.736V7.668c0-0.274,0-0.396,0.001-0.549 c0-0.064,0.001-0.125,0.001-0.182c0.001-0.223,0.004-0.426,0.009-0.62c0.014-0.529,0.046-0.946,0.121-1.358 c0.087-0.476,0.229-0.903,0.434-1.301c0.211-0.411,0.485-0.784,0.814-1.109c0.33-0.327,0.708-0.599,1.122-0.807 c0.403-0.203,0.834-0.344,1.315-0.429c0.413-0.074,0.822-0.105,1.379-0.12c0.72-0.009,0.989-0.011,1.359-0.011H8.27 c0.896,0.003,1.143,0.005,1.366,0.011c0.55,0.015,0.959,0.046,1.371,0.12c0.482,0.085,0.913,0.226,1.314,0.428 c0.416,0.209,0.794,0.48,1.123,0.806c0.331,0.327,0.605,0.7,0.814,1.109c0.206,0.4,0.348,0.827,0.434,1.302 c0.075,0.412,0.107,0.819,0.121,1.356c0.006,0.198,0.009,0.402,0.01,0.619c0,0.008,0,0.016,0,0.024c0,0.069-0.001,0.132-0.003,0.194 c-0.004,0.162-0.014,0.283-0.033,0.391c-0.019,0.106-0.05,0.197-0.092,0.28c-0.044,0.085-0.1,0.162-0.168,0.229 c-0.069,0.069-0.148,0.125-0.234,0.168s-0.179,0.074-0.29,0.094c-0.108,0.019-0.227,0.028-0.395,0.033 c-0.231,0.003-0.27,0.003-0.311,0.004c-0.018,0-0.018,0-0.039,0l-0.163-0.001c-0.453,0.012-1.325,0.036-1.656,0.096 c-0.388,0.069-0.737,0.183-1.064,0.348c-0.336,0.168-0.643,0.389-0.911,0.655c-0.267,0.263-0.49,0.566-0.661,0.899 c-0.166,0.324-0.281,0.67-0.351,1.054c-0.06,0.33-0.085,1.216-0.096,1.636l-0.002,0.23c0,0.052,0,0.052,0,0.069 c0,0.019,0,0.019-0.001,0.067c0,0.074-0.001,0.143-0.003,0.213c-0.004,0.158-0.014,0.28-0.033,0.388 c-0.02,0.106-0.05,0.197-0.092,0.279c-0.044,0.085-0.1,0.162-0.168,0.229c-0.069,0.069-0.148,0.125-0.234,0.168 c-0.086,0.043-0.179,0.073-0.289,0.093C7.478,14.785,7.421,14.792,7.358,14.797z" />
    </svg>

    <svg id="chat-clock" width="14" height="18" fill="currentColor">
        <path d="M8.906,10.132h-1.64V7.569c0-0.3-0.243-0.545-0.545-0.545H6.619 c-0.3,0-0.545,0.243-0.545,0.545v3.21c0,0.3,0.243,0.545,0.545,0.545h0.102c0.001,0,0.002-0.001,0.003-0.001 s0.002,0.001,0.003,0.001h2.178c0.3,0,0.545-0.243,0.545-0.545v-0.102C9.451,10.376,9.206,10.132,8.906,10.132z M8.906,4.4H5.094 C3.112,4.4,1.5,6.012,1.5,7.994v3.812c0,1.982,1.612,3.594,3.594,3.594h3.812c1.982,0,3.594-1.612,3.594-3.594V7.994 C12.5,6.012,10.888,4.4,8.906,4.4z M11.084,11.806c0,1.203-0.975,2.178-2.178,2.178H5.094c-1.203,0-2.178-0.975-2.178-2.178V7.994 c0-1.203,0.975-2.178,2.178-2.178h3.812c1.203,0,2.178,0.975,2.178,2.178V11.806z" />
    </svg>

    <svg id="chat-check" fill="currentColor">
        <path d="M12.502,5.035l-0.57-0.444c-0.188-0.147-0.462-0.113-0.609,0.076l-6.39,8.198 c-0.147,0.188-0.406,0.206-0.577,0.039l-2.614-2.556c-0.171-0.167-0.447-0.164-0.614,0.007l-0.505,0.516 c-0.167,0.171-0.164,0.447,0.007,0.614l3.887,3.8c0.171,0.167,0.43,0.149,0.577-0.039l7.483-9.602 C12.724,5.456,12.69,5.182,12.502,5.035z"/>
    </svg>

    <svg id="chat-double-check" fill="currentColor">
        <path d="M17.394,5.035l-0.57-0.444c-0.188-0.147-0.462-0.113-0.609,0.076l-6.39,8.198 c-0.147,0.188-0.406,0.206-0.577,0.039l-0.427-0.388c-0.171-0.167-0.431-0.15-0.578,0.038L7.792,13.13 c-0.147,0.188-0.128,0.478,0.043,0.645l1.575,1.51c0.171,0.167,0.43,0.149,0.577-0.039l7.483-9.602 C17.616,5.456,17.582,5.182,17.394,5.035z M12.502,5.035l-0.57-0.444c-0.188-0.147-0.462-0.113-0.609,0.076l-6.39,8.198 c-0.147,0.188-0.406,0.206-0.577,0.039l-2.614-2.556c-0.171-0.167-0.447-0.164-0.614,0.007l-0.505,0.516 c-0.167,0.171-0.164,0.447,0.007,0.614l3.887,3.8c0.171,0.167,0.43,0.149,0.577-0.039l7.483-9.602 C12.724,5.456,12.69,5.182,12.502,5.035z"/>
    </svg>

    <svg id="msg-clock" fill="currentColor">
        <path d="M9.75,7.713H8.244V5.359c0-0.276-0.224-0.5-0.5-0.5H7.65c-0.276,0-0.5,0.224-0.5,0.5v2.947 c0,0.276,0.224,0.5,0.5,0.5h0.094c0.001,0,0.002-0.001,0.003-0.001S7.749,8.807,7.75,8.807h2c0.276,0,0.5-0.224,0.5-0.5V8.213 C10.25,7.937,10.026,7.713,9.75,7.713z M9.75,2.45h-3.5c-1.82,0-3.3,1.48-3.3,3.3v3.5c0,1.82,1.48,3.3,3.3,3.3h3.5 c1.82,0,3.3-1.48,3.3-3.3v-3.5C13.05,3.93,11.57,2.45,9.75,2.45z M11.75,9.25c0,1.105-0.895,2-2,2h-3.5c-1.104,0-2-0.895-2-2v-3.5 c0-1.104,0.896-2,2-2h3.5c1.105,0,2,0.896,2,2V9.25z" />
    </svg>

    <svg id="msg-check" fill="currentColor">
        <path d="M11.1549 0.652832C11.0745 0.585124 10.9729 0.55127 10.8502 0.55127C10.7021 0.55127 10.5751 0.610514 10.4693 0.729004L4.28038 8.36523L1.87461 6.09277C1.8323 6.04622 1.78151 6.01025 1.72227 5.98486C1.66303 5.95947 1.60166 5.94678 1.53819 5.94678C1.407 5.94678 1.29275 5.99544 1.19541 6.09277L0.884379 6.40381C0.79128 6.49268 0.744731 6.60482 0.744731 6.74023C0.744731 6.87565 0.79128 6.98991 0.884379 7.08301L3.88047 10.0791C4.02859 10.2145 4.19574 10.2822 4.38194 10.2822C4.48773 10.2822 4.58929 10.259 4.68663 10.2124C4.78396 10.1659 4.86436 10.1003 4.92784 10.0156L11.5738 1.59863C11.6458 1.5013 11.6817 1.40186 11.6817 1.30029C11.6817 1.14372 11.6183 1.01888 11.4913 0.925781L11.1549 0.652832Z"/>
    </svg>

    <svg id="msg-double-check" fill="currentColor">
        <path d="M11.0714 0.652832C10.991 0.585124 10.8894 0.55127 10.7667 0.55127C10.6186 0.55127 10.4916 0.610514 10.3858 0.729004L4.19688 8.36523L1.79112 6.09277C1.7488 6.04622 1.69802 6.01025 1.63877 5.98486C1.57953 5.95947 1.51817 5.94678 1.45469 5.94678C1.32351 5.94678 1.20925 5.99544 1.11192 6.09277L0.800883 6.40381C0.707784 6.49268 0.661235 6.60482 0.661235 6.74023C0.661235 6.87565 0.707784 6.98991 0.800883 7.08301L3.79698 10.0791C3.94509 10.2145 4.11224 10.2822 4.29844 10.2822C4.40424 10.2822 4.5058 10.259 4.60313 10.2124C4.70046 10.1659 4.78086 10.1003 4.84434 10.0156L11.4903 1.59863C11.5623 1.5013 11.5982 1.40186 11.5982 1.30029C11.5982 1.14372 11.5348 1.01888 11.4078 0.925781L11.0714 0.652832ZM8.6212 8.32715C8.43077 8.20866 8.2488 8.09017 8.0753 7.97168C7.99489 7.89128 7.8891 7.85107 7.75791 7.85107C7.6098 7.85107 7.4892 7.90397 7.3961 8.00977L7.10411 8.33984C7.01947 8.43717 6.97715 8.54508 6.97715 8.66357C6.97715 8.79476 7.0237 8.90902 7.1168 9.00635L8.1959 10.0791C8.33132 10.2145 8.49636 10.2822 8.69102 10.2822C8.79681 10.2822 8.89838 10.259 8.99571 10.2124C9.09304 10.1659 9.17556 10.1003 9.24327 10.0156L15.8639 1.62402C15.9358 1.53939 15.9718 1.43994 15.9718 1.32568C15.9718 1.1818 15.9125 1.05697 15.794 0.951172L15.4386 0.678223C15.3582 0.610514 15.2587 0.57666 15.1402 0.57666C14.9964 0.57666 14.8715 0.635905 14.7657 0.754395L8.6212 8.32715Z"/>
    </svg>

    <svg id="msg-x" viewBox="7 6 12 14" fill="currentColor">
        <path d="M17.25,7.8L16.2,6.75l-4.2,4.2l-4.2-4.2L6.75,7.8l4.2,4.2l-4.2,4.2l1.05,1.05l4.2-4.2l4.2,4.2l1.05-1.05 l-4.2-4.2L17.25,7.8z" />
    </svg>

    <svg id="chat-x" viewBox="1 1 19 19"  fill="currentColor">
        <path d="M17.25,7.8L16.2,6.75l-4.2,4.2l-4.2-4.2L6.75,7.8l4.2,4.2l-4.2,4.2l1.05,1.05l4.2-4.2l4.2,4.2l1.05-1.05 l-4.2-4.2L17.25,7.8z" />
    </svg>

    <svg id="image-download" fill="currentColor">
        <path d="M19.4725963,12.2 L15.1725963,12.2 L15.1725963,2.9 C15.1725963,2.4 14.7725963,2 14.2725963,2 L9.97259631,2 C9.47259631,2 9.07259631,2.4 9.07259631,2.9 L9.07259631,12.2 L4.77259631,12.2 C3.97259631,12.2 3.77259631,12.7 4.27259631,13.3 L11.0725963,20.6 C11.7725963,21.5 12.4725963,21.3 13.1725963,20.6 L19.9725963,13.3 C20.4725963,12.7 20.2725963,12.2 19.4725963,12.2 Z" />
    </svg>

    <svg id="download" fill="currentColor">
        <path d="M17,2c8.3,0,15,6.7,15,15s-6.7,15-15,15S2,25.3,2,17S8.7,2,17,2 M17,1C8.2,1,1,8.2,1,17 s7.2,16,16,16s16-7.2,16-16S25.8,1,17,1L17,1z" />
        <path d="M22.4,17.5h-3.2v-6.8c0-0.4-0.3-0.7-0.7-0.7h-3.2c-0.4,0-0.7,0.3-0.7,0.7v6.8h-3.2 c-0.6,0-0.8,0.4-0.4,0.8l5,5.3c0.5,0.7,1,0.5,1.5,0l5-5.3C23.2,17.8,23,17.5,22.4,17.5z" />
    </svg>

    <svg id="cancel" fill="currentColor">
        <path d="M22.5,12.6l-1.1-1.1L17,15.9l-4.4-4.4l-1.1,1.1l4.4,4.4l-4.4,4.4l1.1,1.1l4.4-4.4 l4.4,4.4l1.1-1.1L18.1,17L22.5,12.6z" />
    </svg>

    <svg id="image-cancel" fill="currentColor">
        <path d="M29.377,16.099l-1.475-1.475L22,20.525l-5.901-5.901l-1.476,1.475L20.525,22l-5.901,5.901l1.476,1.475 l5.9-5.901l5.901,5.901l1.475-1.475L23.475,22L29.377,16.099z" />
    </svg>

    <svg id="spin" stroke-width="2">
        <circle cx="17" cy="17" r="15.5" stroke-dasharray="24 98" />
    </svg>

    <svg id="image-spin" stroke-width="2">
        <circle cx="22" cy="22" r="20" stroke-dasharray="36 126" />
    </svg>

    <svg id="attach" viewBox="-1.5 0 25.5 25.5" fill="currentColor">
        <path d="M20.5 13.2501L20.5 10.7501L13.25 10.7501L13.25 3.5L10.75 3.5L10.75 10.7501L3.5 10.7501L3.5 13.2501L10.75 13.2501L10.75 20.5L13.25 20.5L13.25 13.2501L20.5 13.2501Z" />
    </svg>

    <svg id="pause" fill="currentColor">
        <path d="M9.2,25c0,0.5,0.4,1,0.9,1h3.6c0.5,0,0.9-0.4,0.9-1V9c0-0.5-0.4-0.9-0.9-0.9h-3.6 C9.7,8,9.2,8.4,9.2,9V25z M20.2,8c-0.5,0-1,0.4-1,0.9V25c0,0.5,0.4,1,1,1h3.6c0.5,0,1-0.4,1-1V9c0-0.5-0.4-0.9-1-0.9 C23.8,8,20.2,8,20.2,8z" />
    </svg>

    <svg id="play" fill="currentColor">
        <path d="M8.5,8.7c0-1.7,1.2-2.4,2.6-1.5l14.4,8.3c1.4,0.8,1.4,2.2,0,3l-14.4,8.3 c-1.4,0.8-2.6,0.2-2.6-1.5V8.7z" />
    </svg>

    <svg viewBox="0 0 19 26" height="26" width="19" id="mic">
        <path fill="#ffffff" class="background" d="M9.217,24.401c-1.158,0-2.1-0.941-2.1-2.1v-2.366c-2.646-0.848-4.652-3.146-5.061-5.958L2.004,13.62 l-0.003-0.081c-0.021-0.559,0.182-1.088,0.571-1.492c0.39-0.404,0.939-0.637,1.507-0.637h0.3c0.254,0,0.498,0.044,0.724,0.125v-6.27 C5.103,2.913,7.016,1,9.367,1c2.352,0,4.265,1.913,4.265,4.265v6.271c0.226-0.081,0.469-0.125,0.723-0.125h0.3 c0.564,0,1.112,0.233,1.501,0.64s0.597,0.963,0.571,1.526c0,0.005,0.001,0.124-0.08,0.6c-0.47,2.703-2.459,4.917-5.029,5.748v2.378 c0,1.158-0.942,2.1-2.1,2.1H9.217V24.401z" />
        <path fill="currentColor" class="icon" d="M9.367,15.668c1.527,0,2.765-1.238,2.765-2.765V5.265c0-1.527-1.238-2.765-2.765-2.765 S6.603,3.738,6.603,5.265v7.638C6.603,14.43,7.84,15.668,9.367,15.668z M14.655,12.91h-0.3c-0.33,0-0.614,0.269-0.631,0.598 c0,0,0,0-0.059,0.285c-0.41,1.997-2.182,3.505-4.298,3.505c-2.126,0-3.904-1.521-4.304-3.531C5.008,13.49,5.008,13.49,5.008,13.49 c-0.016-0.319-0.299-0.579-0.629-0.579h-0.3c-0.33,0-0.591,0.258-0.579,0.573c0,0,0,0,0.04,0.278 c0.378,2.599,2.464,4.643,5.076,4.978v3.562c0,0.33,0.27,0.6,0.6,0.6h0.3c0.33,0,0.6-0.27,0.6-0.6V18.73 c2.557-0.33,4.613-2.286,5.051-4.809c0.057-0.328,0.061-0.411,0.061-0.411C15.243,13.18,14.985,12.91,14.655,12.91z" />
    </svg>

    <svg id="pin" height="15" width="13">
        <path fill="currentColor" d="M12.074 4.21 8.7 8.232l.116 4.233a.4.4 0 0 1-.657.318L.43 6.297a.4.4 0 0 1 .199-.702l4.196-.622L8.196.957a.63.63 0 0 1 .887-.078l2.914 2.445a.63.63 0 0 1 .077.887ZM1.294 14.229a.713.713 0 0 1-1.09-.915l2.674-3.64 1.536 1.288-3.12 3.267Z"></path>
    </svg>
</svg>
